<?xml version="1.0" standalone="no"?>
<!DOCTYPE svg PUBLIC "-//W3C//DTD SVG 20010904//EN"
 "http://www.w3.org/TR/2001/REC-SVG-20010904/DTD/svg10.dtd">
<svg version="1.0" xmlns="http://www.w3.org/2000/svg"
 width="280.000000pt" height="379.000000pt" viewBox="0 0 658.000000 379.000000"
 preserveAspectRatio="xMidYMid meet">

<g transform="translate(0.000000,379.000000) scale(0.100000,-0.100000)"
fill="#000000" stroke="none">
<path d="M4432 3255 c-33 -28 -128 -235 -119 -259 3 -8 2 -16 -3 -18 -8 -3
-94 -277 -114 -360 -6 -28 1 -35 20 -20 5 4 0 -2 -13 -13 -15 -14 -29 -52 -46
-120 -14 -55 -30 -120 -37 -145 -6 -25 -18 -76 -25 -114 -8 -38 -21 -79 -30
-92 -8 -13 -15 -34 -15 -46 0 -13 -10 -60 -22 -106 -22 -80 -24 -83 -48 -78
-14 4 -51 9 -82 13 l-58 6 0 113 c0 146 -13 212 -45 220 -33 8 -53 -6 -110
-76 -27 -34 -63 -78 -79 -97 -16 -18 -27 -36 -24 -38 2 -3 21 17 41 43 65 83
135 157 142 150 10 -10 -11 -37 -99 -128 -42 -44 -81 -78 -86 -75 -5 3 -23
-12 -40 -33 -32 -40 -88 -87 -96 -80 -6 7 35 127 61 178 13 25 35 59 49 75 24
29 25 29 26 7 0 -28 24 -38 56 -24 20 10 24 19 24 52 0 34 -4 42 -26 50 -48
19 -70 12 -116 -38 -79 -84 -128 -194 -128 -288 0 -34 5 -47 27 -64 19 -15 35
-19 53 -15 36 9 108 82 208 213 47 61 90 112 94 112 4 0 8 -60 8 -133 l0 -134
-45 -23 c-25 -13 -43 -25 -41 -27 2 -3 13 0 24 6 31 17 37 13 17 -9 -10 -11
-21 -17 -26 -15 -4 3 -13 -1 -21 -8 -7 -8 -20 -11 -28 -9 -13 5 -13 3 0 -13
14 -17 13 -18 -3 -12 -17 6 -54 -6 -67 -22 -3 -3 -22 -17 -42 -31 -20 -13 -34
-28 -32 -32 3 -4 -1 -8 -9 -8 -20 0 -68 -40 -61 -51 3 -5 -6 -13 -21 -19 -14
-5 -29 -19 -33 -29 -4 -11 -11 -19 -17 -19 -5 0 -14 -8 -20 -18 -5 -10 -20
-26 -32 -36 -18 -15 -76 -102 -78 -118 -1 -3 -11 -20 -22 -39 -24 -38 -54
-115 -79 -204 -9 -32 -18 -56 -20 -54 -9 8 37 170 67 242 17 39 25 65 19 59
-18 -18 -90 -192 -95 -232 -3 -20 -10 -63 -16 -94 -17 -84 -7 -148 34 -231 65
-131 163 -195 247 -160 76 30 152 113 216 233 19 36 38 72 43 80 5 8 13 26 19
40 6 14 20 45 30 70 21 49 37 95 32 95 -2 0 6 18 17 40 20 39 68 245 78 335 2
25 10 92 16 150 7 58 17 108 23 112 6 4 39 8 72 8 l61 0 18 -45 c20 -53 48
-74 64 -48 9 16 12 16 21 3 8 -12 9 -10 8 10 -2 30 89 155 169 233 l50 48 17
-65 c24 -87 65 -150 115 -176 82 -41 141 -18 254 99 45 47 67 77 63 87 -5 12
-10 13 -28 3 -22 -11 -22 -10 -7 6 14 14 21 15 39 5 12 -7 20 -7 16 -2 -3 6 5
19 19 30 21 17 23 21 9 26 -18 7 -47 -11 -39 -24 3 -5 0 -12 -6 -16 -8 -4 -9
-3 -5 4 14 23 -9 11 -49 -24 -22 -19 -34 -33 -27 -29 6 3 12 1 12 -5 0 -7 -7
-10 -15 -6 -9 3 -44 -15 -87 -46 -91 -64 -146 -75 -173 -34 -10 15 -21 62 -27
114 -11 107 -11 107 -43 128 -24 15 -28 15 -68 0 -24 -9 -66 -40 -97 -71 -30
-30 -57 -55 -61 -55 -11 0 36 127 62 168 39 59 47 74 76 132 15 30 35 67 46
83 10 15 16 27 13 27 -3 0 13 36 35 80 21 44 39 82 39 85 0 2 11 29 25 58 32
70 111 304 131 387 9 36 16 94 17 129 1 63 0 65 -38 98 -46 39 -64 41 -103 8z
m68 -230 c-21 -96 -76 -261 -89 -267 -6 -3 -51 -94 -51 -104 0 -3 5 -2 12 2
13 8 13 7 -38 -112 -24 -56 -40 -81 -45 -72 -5 8 -21 -14 -46 -67 -21 -44 -39
-73 -41 -65 -1 9 11 70 29 135 17 66 46 176 64 245 18 69 40 143 49 164 9 21
16 44 16 52 0 28 102 251 127 279 l28 30 3 -60 c2 -37 -5 -99 -18 -160z m-248
-297 c-8 -8 -9 -4 -5 13 4 13 8 18 11 10 2 -7 -1 -18 -6 -23z m-33 -92 c-9 -8
-10 -7 -5 7 3 10 7 24 7 30 1 7 3 4 6 -7 3 -10 -1 -23 -8 -30z m-19 -96 c0 -5
-5 -10 -11 -10 -5 0 -7 5 -4 10 3 6 8 10 11 10 2 0 4 -4 4 -10z m-19 -67 c-9
-15 -10 -14 -7 7 8 44 8 45 13 28 2 -10 0 -25 -6 -35z m-7 -38 c-4 -8 -8 -15
-10 -15 -2 0 -4 7 -4 15 0 8 4 15 10 15 5 0 7 -7 4 -15z m81 -64 c-29 -54 -41
-66 -30 -28 8 25 48 88 53 82 2 -1 -9 -26 -23 -54z m-378 -487 c-3 -3 -12 -4
-19 -1 -8 3 -5 6 6 6 11 1 17 -2 13 -5z m30 -9 c0 -8 -9 -15 -21 -15 -20 0
-20 0 0 15 10 8 19 15 20 15 0 0 1 -7 1 -15z m-127 -9 c0 -3 -4 -8 -10 -11 -5
-3 -10 -1 -10 4 0 6 5 11 10 11 6 0 10 -2 10 -4z m2 -51 c6 -6 -6 -93 -36
-260 -37 -205 -76 -326 -162 -497 -104 -208 -203 -308 -303 -308 -76 0 -110
71 -118 250 -5 111 -4 118 30 217 44 130 99 224 199 335 83 92 159 152 286
224 74 42 93 50 104 39z m-143 -716 c-16 -10 -23 -4 -14 10 3 6 11 8 17 5 6
-4 5 -9 -3 -15z m-9 -50 c0 -13 -4 -18 -12 -13 -6 4 -17 -1 -25 -11 -16 -22
-17 -12 -2 16 5 11 14 17 20 14 5 -4 9 -1 9 4 0 6 2 11 5 11 3 0 5 -9 5 -21z
m-53 -100 c-16 -22 -16 -22 -14 -1 0 11 5 18 9 16 4 -3 8 0 8 7 0 7 3 10 6 6
3 -3 -1 -16 -9 -28z m-30 -21 c-3 -8 -6 -5 -6 6 -1 11 2 17 5 13 3 -3 4 -12 1
-19z m-7 -40 c0 -11 -46 -58 -57 -58 -4 0 3 10 15 23 20 21 22 25 22 48 0 5 5
7 10 4 6 -3 10 -11 10 -17z m-60 -88 c0 -5 -5 -10 -11 -10 -5 0 -7 5 -4 10 3
6 8 10 11 10 2 0 4 -4 4 -10z"/>
<path d="M4346 2623 c-6 -14 -5 -15 5 -6 7 7 10 15 7 18 -3 3 -9 -2 -12 -12z"/>
<path d="M953 2440 c-40 -10 -82 -24 -93 -30 -19 -10 -19 -13 -5 -33 17 -24
92 -77 109 -77 19 0 86 122 86 156 0 7 -24 3 -97 -16z"/>
<path d="M1076 2409 c-10 -28 -28 -68 -41 -90 l-25 -38 43 -9 c23 -5 43 -8 44
-7 6 3 40 181 36 188 -2 4 -12 7 -22 7 -14 0 -23 -14 -35 -51z"/>
<path d="M1171 2403 c-5 -21 -12 -54 -16 -73 -4 -19 -9 -43 -11 -52 -4 -15 1
-18 30 -18 33 0 36 3 54 53 35 95 36 106 7 117 -43 16 -54 12 -64 -27z"/>
<path d="M1296 2388 c-3 -7 -11 -35 -20 -62 -9 -27 -14 -51 -13 -53 5 -5 99
25 126 41 23 13 23 13 -27 49 -55 41 -61 43 -66 25z"/>
<path d="M766 2346 l-29 -24 46 -61 c25 -33 47 -66 49 -73 5 -15 34 2 82 46
l28 27 -43 28 c-24 16 -55 40 -68 55 -29 31 -29 31 -65 2z"/>
<path d="M1375 2265 c-27 -13 -69 -27 -93 -30 -41 -7 -44 -10 -77 -76 -19 -38
-35 -70 -35 -73 0 -6 175 60 253 96 37 17 67 33 67 36 0 10 -51 72 -58 71 -4
0 -29 -11 -57 -24z"/>
<path d="M3039 2260 c-57 -37 -102 -93 -139 -172 -33 -70 -38 -129 -16 -183
19 -44 48 -58 110 -53 50 4 166 53 166 70 0 4 -3 7 -7 7 -30 -5 -20 5 32 30
33 17 69 37 79 45 40 32 6 25 -86 -19 -110 -52 -180 -71 -232 -61 -41 8 -45
24 -21 82 11 26 19 35 31 30 48 -19 152 43 205 122 34 51 36 65 8 103 -27 39
-71 39 -130 -1z m55 -68 c-43 -37 -94 -67 -94 -55 0 11 79 87 105 101 37 20
30 -10 -11 -46z m-14 -282 c-20 -13 -53 -13 -45 0 3 6 18 10 33 10 21 0 24 -2
12 -10z"/>
<path d="M674 2238 c-28 -44 -54 -101 -54 -118 0 -5 11 -10 24 -10 31 0 156
39 156 48 0 22 -75 122 -92 122 -4 0 -20 -19 -34 -42z"/>
<path d="M1947 2263 c-3 -5 -5 -24 -5 -44 0 -19 -23 -96 -51 -171 -28 -75 -51
-150 -51 -167 0 -36 16 -81 29 -81 5 0 35 53 66 117 56 117 135 237 142 216 2
-6 -3 -38 -11 -71 -20 -76 -20 -125 -1 -162 26 -51 93 -35 155 37 31 36 119
113 130 113 3 0 11 -33 17 -72 9 -58 17 -77 38 -95 56 -49 164 -22 313 79 48
32 122 97 122 108 0 3 -9 6 -21 7 -12 1 -19 -3 -16 -10 2 -6 -7 -17 -21 -24
-31 -17 -33 -16 -25 4 7 18 -27 0 -137 -69 -44 -28 -127 -58 -160 -58 -9 0
-25 6 -35 14 -17 12 -17 18 -5 74 15 71 9 100 -25 125 -22 16 -27 16 -53 3
-16 -8 -71 -51 -122 -96 -51 -44 -97 -80 -101 -80 -14 0 -11 19 16 103 30 94
31 111 4 148 -25 36 -58 37 -89 4 -26 -28 -40 -32 -40 -11 0 16 -38 66 -50 66
-5 0 -11 -3 -13 -7z m392 -166 c-2 -1 -13 -9 -24 -17 -19 -14 -19 -14 -6 3 7
9 18 17 24 17 6 0 8 -1 6 -3z"/>
<path d="M948 2213 c-18 -18 -47 -43 -65 -56 -31 -21 -33 -26 -33 -81 l0 -59
48 7 c26 3 82 13 125 23 l79 16 -6 30 c-3 16 -6 53 -6 81 l0 52 -55 10 c-55
10 -55 10 -87 -23z"/>
<path d="M1136 2189 c-14 -73 0 -79 32 -14 l22 45 -24 0 c-18 0 -25 -7 -30
-31z"/>
<path d="M5043 2200 c-58 -35 -155 -182 -183 -277 -12 -38 -11 -47 6 -78 35
-65 93 -46 228 75 49 44 94 80 100 80 7 0 11 -23 11 -64 0 -78 19 -106 74
-106 49 0 172 73 248 146 l58 56 -51 -41 c-77 -62 -78 -49 -1 20 37 34 77 80
88 103 l21 41 -51 -50 c-49 -48 -72 -77 -31 -40 11 10 23 16 26 12 8 -8 -115
-107 -181 -145 -32 -18 -55 -26 -52 -19 4 10 -7 9 -47 -4 -28 -10 -55 -14 -59
-10 -5 5 -4 35 2 67 6 32 11 68 11 80 0 32 -24 52 -55 46 -25 -4 -25 -3 -14
22 17 36 -2 73 -46 92 -46 19 -64 18 -102 -6z m90 -97 c5 -36 2 -41 -61 -102
-74 -69 -139 -117 -148 -108 -9 9 63 137 99 176 30 32 84 71 98 71 4 0 9 -17
12 -37z m337 -157 c0 -9 -59 -47 -97 -62 -47 -20 -40 -12 28 31 53 32 69 40
69 31z"/>
<path d="M1411 2133 c-52 -24 -131 -55 -175 -70 -45 -14 -82 -27 -84 -28 -14
-12 67 -195 86 -195 4 0 27 25 51 55 52 65 132 127 206 161 l54 25 -16 44 c-8
25 -18 47 -21 49 -4 2 -49 -17 -101 -41z"/>
<path d="M2827 2124 c-51 -40 -60 -52 -24 -32 12 7 27 11 34 10 7 -2 19 11 28
28 8 16 14 30 12 30 -2 0 -25 -16 -50 -36z"/>
<path d="M4855 2112 c-47 -34 -48 -37 -25 -40 13 -2 26 1 28 8 2 6 16 22 30
35 42 39 21 37 -33 -3z"/>
<path d="M735 2089 c-27 -10 -69 -18 -92 -19 -39 0 -43 -2 -43 -24 0 -13 -3
-32 -7 -41 -5 -15 0 -17 43 -11 27 3 77 8 112 12 l62 6 0 49 c0 55 0 55 -75
28z"/>
<path d="M1488 2008 c-74 -39 -123 -82 -178 -154 l-45 -57 40 -34 c77 -67 127
-97 144 -86 9 5 33 44 55 85 31 61 41 93 49 167 7 56 7 95 1 101 -5 5 -31 -3
-66 -22z"/>
<path d="M980 1998 c-52 -10 -105 -21 -117 -24 -14 -3 -29 -18 -38 -40 -16
-38 -13 -54 9 -54 7 0 32 -13 54 -30 23 -16 46 -30 50 -30 5 0 36 39 69 88 61
89 77 113 71 111 -2 -1 -46 -10 -98 -21z"/>
<path d="M1073 1933 c-22 -32 -54 -78 -71 -103 l-33 -46 44 -66 c25 -36 46
-70 48 -75 2 -6 26 -7 53 -4 l48 6 17 55 c10 30 22 64 28 74 9 16 4 29 -22 70
-17 28 -40 72 -50 99 -10 26 -19 47 -21 47 -1 0 -20 -26 -41 -57z"/>
<path d="M730 1963 c-132 -12 -138 -14 -133 -31 3 -14 18 -17 89 -17 64 0 87
4 94 15 14 21 12 40 -2 38 -7 0 -29 -3 -48 -5z"/>
<path d="M627 1873 c-21 -5 -18 -29 12 -98 l17 -39 42 59 c23 32 42 61 42 65
0 15 -74 23 -113 13z"/>
<path d="M769 1828 c-7 -12 -30 -47 -52 -76 l-40 -53 43 -45 c25 -24 48 -44
52 -44 9 0 138 161 138 172 0 11 -73 56 -103 63 -20 5 -28 2 -38 -17z"/>
<path d="M3640 1827 c-14 -7 -47 -27 -73 -44 -27 -18 -50 -33 -53 -33 -7 0
-107 -94 -161 -152 -53 -55 -102 -119 -103 -132 0 -5 14 11 32 35 61 85 221
232 313 287 84 49 102 65 45 39z"/>
<path d="M1222 1700 l-20 -59 21 -6 c12 -4 46 -18 75 -33 l52 -25 30 28 29 28
-57 42 c-31 23 -66 52 -76 63 -11 12 -22 22 -27 22 -4 0 -16 -27 -27 -60z"/>
<path d="M898 1694 c-25 -33 -55 -68 -67 -78 -29 -26 -26 -43 9 -61 39 -20 41
-20 98 18 27 17 57 37 68 43 17 10 17 13 -8 55 -54 90 -49 89 -100 23z"/>
<path d="M1080 1593 c1 -20 27 -94 33 -94 4 1 14 1 22 1 11 0 15 12 15 50 l0
50 -35 0 c-19 0 -35 -3 -35 -7z"/>
<path d="M1190 1555 c0 -43 1 -46 23 -39 36 11 87 33 87 37 0 6 -56 32 -87 42
-22 6 -23 3 -23 -40z"/>
<path d="M995 1563 c-16 -8 -38 -23 -49 -32 -17 -15 -15 -17 45 -28 35 -6 66
-10 68 -8 7 7 -14 78 -24 81 -6 2 -23 -4 -40 -13z"/>
<path d="M3081 1094 c0 -11 3 -14 6 -6 3 7 2 16 -1 19 -3 4 -6 -2 -5 -13z"/>
</g>
</svg>
