<?xml version="1.0" standalone="no"?>
<!DOCTYPE svg PUBLIC "-//W3C//DTD SVG 20010904//EN"
 "http://www.w3.org/TR/2001/REC-SVG-20010904/DTD/svg10.dtd">
<svg version="1.0" xmlns="http://www.w3.org/2000/svg"
 width="200.000000pt" height="262.000000pt" viewBox="0 0 508.000000 262.000000"
 preserveAspectRatio="xMidYMid meet">

<g transform="translate(0.000000,262.000000) scale(0.100000,-0.100000)"
fill="#000000" stroke="none">
<path d="M3852 2585 c-50 -42 -143 -289 -229 -610 -38 -142 -101 -395 -113
-455 -6 -30 -18 -66 -27 -79 -8 -13 -17 -42 -19 -65 -1 -22 -11 -68 -22 -101
-16 -53 -21 -60 -43 -57 -13 1 -50 5 -81 9 l-58 5 0 114 c0 141 -14 212 -43
224 -37 13 -41 10 -188 -173 -17 -21 -29 -40 -27 -42 2 -3 21 17 40 43 48 62
148 160 148 144 0 -7 -35 -49 -77 -95 -78 -82 -96 -98 -110 -98 -5 0 -36 -27
-70 -61 -34 -34 -65 -59 -68 -56 -10 9 50 164 84 217 36 56 46 61 54 31 6 -24
48 -27 66 -6 7 8 11 32 9 52 -3 33 -7 40 -35 47 -52 15 -80 2 -130 -66 -65
-88 -95 -158 -101 -237 -4 -64 -3 -68 24 -89 20 -16 36 -20 54 -16 35 9 107
81 207 210 47 61 89 112 94 113 5 2 9 -57 9 -131 l0 -134 -45 -23 c-51 -26
-57 -33 -18 -24 24 6 25 5 12 -8 -8 -9 -16 -16 -19 -15 -3 0 -17 -3 -32 -7
-19 -6 -25 -12 -21 -24 4 -9 2 -13 -5 -9 -12 8 -62 -12 -62 -25 0 -4 -5 -8
-10 -8 -17 0 -70 -42 -64 -52 3 -4 -1 -8 -9 -8 -17 0 -68 -38 -64 -48 1 -4 -1
-7 -4 -7 -14 0 -38 -28 -32 -39 3 -6 3 -8 -1 -4 -9 7 -69 -42 -61 -50 3 -3 -4
-11 -14 -19 -20 -14 -82 -100 -85 -118 -1 -5 -9 -22 -19 -36 -23 -34 -61 -130
-82 -207 -10 -34 -20 -61 -22 -58 -8 8 40 169 73 250 19 44 32 81 30 83 -3 4
-90 -180 -101 -216 -5 -18 -9 -20 -16 -10 -7 12 -9 11 -9 -2 0 -8 4 -19 8 -25
5 -5 3 -34 -4 -64 -8 -39 -12 -46 -13 -26 0 16 -3 27 -6 25 -2 -3 -1 -48 4
-101 15 -181 107 -318 229 -341 40 -8 94 17 151 68 37 34 131 164 131 182 0 4
11 24 23 43 13 19 32 58 42 85 10 28 24 59 31 70 6 11 15 34 19 50 10 38 9 33
28 76 16 36 77 318 76 354 0 11 5 68 12 128 14 122 14 121 105 115 47 -3 49
-4 71 -49 24 -52 47 -67 63 -41 8 15 11 15 20 2 8 -12 9 -10 8 10 -2 28 97
163 175 238 l45 44 12 -54 c39 -168 154 -249 262 -185 63 38 182 161 175 182
-6 13 -11 14 -28 4 -15 -8 -19 -8 -15 0 4 6 5 11 2 11 -5 0 -111 -76 -168
-120 -34 -26 -88 -36 -116 -21 -26 14 -39 56 -47 154 -4 47 -12 83 -22 92 -41
42 -105 20 -188 -64 -27 -28 -52 -51 -56 -51 -16 0 35 120 86 205 14 22 40 69
58 105 18 36 38 74 44 85 55 98 193 440 193 476 0 8 4 19 9 24 9 10 44 149 56
221 10 63 -8 115 -50 142 -44 28 -57 28 -93 -3z m68 -230 c-24 -109 -56 -210
-74 -228 -10 -11 -80 -168 -92 -207 -3 -8 6 5 20 30 36 65 32 47 -15 -61 -41
-95 -58 -125 -44 -79 12 39 -3 18 -52 -72 -40 -75 -44 -79 -38 -43 3 22 24
103 45 180 22 77 46 169 55 205 8 36 24 90 35 120 12 30 23 64 25 75 11 52 91
228 119 262 l31 37 3 -59 c2 -35 -6 -101 -18 -160z m-248 -297 c-8 -8 -9 -4
-5 13 4 13 8 18 11 10 2 -7 -1 -18 -6 -23z m-30 -90 c-7 -7 -12 -8 -12 -2 0
14 12 26 19 19 2 -3 -1 -11 -7 -17z m-22 -98 c0 -5 -5 -10 -11 -10 -5 0 -7 5
-4 10 3 6 8 10 11 10 2 0 4 -4 4 -10z m-13 -42 c-3 -8 -6 -5 -6 6 -1 11 2 17
5 13 3 -3 4 -12 1 -19z m-13 -63 c-4 -8 -8 -15 -10 -15 -2 0 -4 7 -4 15 0 8 4
15 10 15 5 0 7 -7 4 -15z m75 -74 c-12 -23 -23 -40 -25 -38 -5 5 21 69 32 80
17 16 14 -3 -7 -42z m-469 -495 c0 -3 -4 -8 -10 -11 -5 -3 -10 -1 -10 4 0 6 5
11 10 11 6 0 10 -2 10 -4z m117 -2 c-3 -3 -12 -4 -19 -1 -8 3 -5 6 6 6 11 1
17 -2 13 -5z m-115 -49 c5 -5 -18 -163 -46 -315 -18 -94 -48 -207 -65 -238 -6
-11 -18 -42 -27 -68 -40 -118 -137 -285 -213 -368 -66 -71 -169 -99 -209 -56
-33 35 -54 119 -59 230 -5 98 -3 111 27 205 50 153 89 220 208 352 79 88 156
148 281 219 74 43 92 49 103 39z m-136 -707 c4 -7 3 -8 -4 -4 -7 4 -12 2 -12
-5 0 -7 -3 -10 -6 -6 -6 5 3 27 11 27 2 0 7 -5 11 -12z m-106 -215 c0 -5 -7
-17 -16 -28 -14 -19 -14 -19 -10 5 2 14 5 26 5 28 2 6 21 1 21 -5z"/>
<path d="M420 1783 c-32 -5 -119 -33 -143 -45 -17 -9 -17 -10 2 -37 11 -15 40
-38 65 -52 45 -23 46 -23 61 -4 17 24 50 91 60 123 7 23 5 23 -45 15z"/>
<path d="M507 1783 c-4 -3 -7 -14 -7 -23 0 -10 -15 -47 -33 -84 l-34 -66 26
-6 c14 -3 34 -8 44 -11 9 -2 17 -3 17 -1 0 2 9 44 19 93 10 50 17 93 14 98 -5
9 -37 9 -46 0z"/>
<path d="M597 1763 c-3 -5 -10 -35 -16 -68 -7 -33 -14 -70 -17 -82 -4 -20 0
-23 30 -23 33 0 36 3 56 57 35 93 36 109 8 116 -31 9 -56 9 -61 0z"/>
<path d="M715 1718 c-15 -40 -34 -113 -30 -116 5 -5 92 24 124 42 23 13 23 13
-27 49 -55 41 -61 43 -67 25z"/>
<path d="M185 1675 l-29 -24 22 -28 c13 -15 35 -47 50 -70 15 -23 30 -43 33
-43 9 0 99 72 99 80 0 4 -11 12 -25 18 -14 6 -45 30 -69 52 -24 22 -45 40 -47
40 -2 -1 -17 -12 -34 -25z"/>
<path d="M805 1600 c-22 -11 -64 -25 -93 -31 -53 -12 -54 -14 -88 -81 -19 -37
-34 -69 -34 -72 0 -12 295 108 319 130 5 5 -48 74 -57 73 -4 0 -25 -9 -47 -19z"/>
<path d="M2455 1591 c-80 -57 -155 -178 -163 -262 -13 -141 81 -191 226 -117
62 32 77 48 45 48 -10 0 6 11 35 25 63 29 112 62 112 76 0 5 -35 -9 -79 -30
-147 -74 -245 -97 -287 -67 -18 14 -18 17 -4 58 13 36 19 43 40 40 59 -6 152
51 204 126 31 46 32 65 5 103 -28 39 -78 39 -134 0z m79 -46 c-17 -27 -104
-88 -113 -80 -8 8 98 105 114 105 13 0 13 -3 -1 -25z m-34 -305 c-20 -13 -40
-13 -40 0 0 6 12 10 28 10 21 0 24 -2 12 -10z"/>
<path d="M101 1581 c-25 -34 -60 -110 -61 -128 0 -7 11 -13 24 -13 31 0 156
39 156 48 0 22 -75 122 -91 122 -4 0 -17 -13 -28 -29z"/>
<path d="M1366 1588 c-3 -7 -7 -33 -10 -58 -3 -25 -25 -100 -51 -167 -25 -66
-45 -134 -45 -151 0 -37 16 -82 29 -82 5 0 35 53 66 117 55 115 135 237 142
217 2 -6 -3 -37 -12 -69 -50 -193 38 -259 160 -123 35 38 117 108 128 108 2 0
7 -27 11 -61 7 -70 31 -117 64 -126 58 -14 129 3 216 53 81 46 196 136 196
153 0 5 -10 7 -22 6 -33 -3 -34 -4 -21 -13 8 -5 3 -11 -17 -19 -23 -9 -28 -8
-23 3 8 22 -3 17 -86 -36 -120 -77 -207 -105 -244 -77 -17 12 -18 18 -7 75 15
73 9 104 -25 126 -23 15 -27 15 -57 0 -18 -9 -73 -52 -121 -95 -49 -44 -93
-79 -98 -79 -14 0 -11 21 16 100 30 89 31 119 4 154 -24 31 -59 34 -84 6 -21
-23 -45 -26 -45 -7 0 16 -37 57 -51 57 -5 0 -11 -6 -13 -12z m384 -162 c0 -2
-8 -10 -17 -17 -16 -13 -17 -12 -4 4 13 16 21 21 21 13z"/>
<path d="M368 1542 c-18 -18 -48 -42 -65 -53 -31 -20 -33 -24 -33 -80 0 -70
-3 -70 145 -39 53 11 98 20 100 20 2 0 1 37 -1 82 l-3 82 -56 11 -55 11 -32
-34z"/>
<path d="M555 1516 c-13 -66 -1 -74 28 -18 l27 52 -24 0 c-21 0 -26 -6 -31
-34z"/>
<path d="M4463 1530 c-42 -25 -116 -126 -159 -215 -39 -79 -41 -101 -16 -144
14 -25 23 -31 53 -31 41 0 81 26 174 112 51 46 94 78 107 78 2 0 3 -29 3 -64
0 -131 75 -142 235 -33 64 44 128 98 135 115 3 7 -16 -5 -42 -27 -74 -62 -64
-39 13 33 38 35 75 78 81 97 12 32 11 32 -42 -21 -30 -29 -52 -57 -49 -61 6
-10 -87 -84 -137 -110 -42 -21 -53 -24 -45 -11 3 5 -18 1 -47 -9 -29 -10 -55
-15 -59 -11 -4 4 -3 35 2 67 5 33 10 70 10 82 0 30 -25 52 -51 46 -19 -5 -21
-3 -14 25 8 38 -7 67 -45 87 -39 20 -69 19 -107 -5z m90 -97 c5 -36 2 -41 -61
-102 -73 -69 -139 -117 -148 -108 -9 8 61 131 99 174 29 33 83 73 98 73 4 0 9
-17 12 -37z m442 -43 c-10 -11 -23 -20 -28 -20 -6 0 -2 9 8 20 10 11 23 20 28
20 6 0 2 -9 -8 -20z m-136 -139 c-32 -24 -70 -44 -75 -38 -5 5 76 56 90 57 5
0 -2 -8 -15 -19z"/>
<path d="M830 1463 c-52 -24 -132 -55 -178 -70 -83 -28 -84 -28 -78 -58 8 -41
69 -160 82 -160 6 0 30 22 53 49 60 69 126 122 198 157 l61 31 -15 44 c-8 24
-18 45 -21 47 -4 2 -50 -16 -102 -40z"/>
<path d="M2246 1454 c-26 -20 -45 -38 -42 -42 3 -3 14 2 23 10 10 9 23 13 30
11 12 -4 50 44 41 52 -3 3 -26 -11 -52 -31z"/>
<path d="M4256 1430 c-36 -28 -64 -55 -61 -60 3 -5 1 -11 -5 -15 -12 -7 -4
-25 11 -25 6 0 8 4 5 9 -3 5 11 21 32 37 20 15 39 32 41 37 1 4 15 19 29 32
49 45 15 35 -52 -15z"/>
<path d="M181 1427 c-24 -11 -70 -22 -102 -24 -56 -6 -57 -6 -64 -40 -3 -19
-4 -37 -2 -40 5 -4 209 16 215 22 2 1 2 25 0 52 l-3 49 -44 -19z"/>
<path d="M905 1337 c-60 -32 -165 -127 -200 -181 l-19 -29 39 -34 c22 -19 61
-50 87 -69 l47 -34 25 33 c36 47 74 135 86 197 12 62 13 150 3 150 -5 0 -35
-15 -68 -33z"/>
<path d="M4160 1355 c-7 -8 -8 -15 -2 -15 5 0 15 7 22 15 7 8 8 15 2 15 -5 0
-15 -7 -22 -15z"/>
<path d="M410 1330 c-41 -10 -90 -19 -107 -19 -33 -1 -54 -22 -68 -68 -5 -19
-1 -25 22 -34 15 -6 42 -21 60 -35 17 -13 36 -24 41 -24 9 0 79 95 121 163 12
20 19 36 14 36 -4 -1 -42 -10 -83 -19z"/>
<path d="M469 1231 c-35 -51 -68 -98 -72 -104 -5 -8 9 -38 37 -81 25 -38 47
-72 48 -76 2 -4 25 -4 52 -1 l48 6 18 58 c10 32 24 64 31 73 10 12 8 20 -11
46 -12 17 -37 62 -55 100 l-32 70 -64 -91z"/>
<path d="M96 1289 c-87 -9 -89 -10 -81 -30 4 -10 27 -14 90 -14 86 0 104 7
105 43 0 13 1 13 -114 1z"/>
<path d="M43 1203 c-18 -7 -15 -30 11 -88 l22 -49 46 64 47 65 -27 6 c-33 8
-83 9 -99 2z"/>
<path d="M181 1147 c-11 -19 -34 -51 -51 -72 -16 -21 -30 -41 -30 -44 0 -10
82 -91 91 -91 10 0 139 159 139 171 0 13 -90 69 -111 69 -10 0 -27 -15 -38
-33z"/>
<path d="M3060 1157 c-14 -7 -47 -27 -73 -44 -27 -18 -51 -33 -54 -33 -11 0
-125 -111 -185 -180 -32 -36 -62 -65 -67 -65 -5 0 -13 -4 -18 -9 -5 -5 -2 -6
6 -1 10 6 11 2 6 -16 -4 -13 20 10 53 52 81 100 189 196 293 258 79 48 96 64
39 38z"/>
<path d="M650 1058 c-32 -88 -32 -84 18 -104 26 -9 56 -23 67 -31 27 -18 35
-16 69 13 27 24 28 27 11 36 -9 6 -46 35 -81 64 -35 30 -65 54 -68 54 -2 0 -9
-15 -16 -32z"/>
<path d="M304 1010 c-84 -104 -82 -99 -59 -116 38 -28 59 -26 112 8 27 18 58
38 69 44 17 10 17 13 -8 55 -55 91 -48 91 -114 9z"/>
<path d="M505 898 c14 -63 23 -77 44 -71 18 4 21 13 21 54 l0 49 -36 0 c-35 0
-35 -1 -29 -32z"/>
<path d="M610 886 c0 -25 4 -46 9 -46 15 0 101 39 101 45 0 6 -46 27 -87 39
-22 7 -23 4 -23 -38z"/>
<path d="M398 883 c-27 -14 -48 -30 -48 -34 0 -4 21 -11 48 -14 26 -4 55 -9
66 -12 17 -5 18 -1 11 33 -12 64 -11 64 -77 27z"/>
<path d="M2546 615 c-9 -26 -7 -32 5 -12 6 10 9 21 6 23 -2 3 -7 -2 -11 -11z"/>
<path d="M2511 494 c0 -11 3 -14 6 -6 3 7 2 16 -1 19 -3 4 -6 -2 -5 -13z"/>
</g>
</svg>
