<?xml version="1.0" standalone="no"?>
<!DOCTYPE svg PUBLIC "-//W3C//DTD SVG 20010904//EN"
 "http://www.w3.org/TR/2001/REC-SVG-20010904/DTD/svg10.dtd">
<svg version="1.0" xmlns="http://www.w3.org/2000/svg"
 width="87.000000pt" height="77.000000pt" viewBox="0 0 87.000000 77.000000"
 preserveAspectRatio="xMidYMid meet">

<g transform="translate(0.000000,77.000000) scale(0.100000,-0.100000)"
fill="#000000" stroke="none">
<path d="M715 741 c-36 -22 -99 -95 -149 -173 -19 -31 -40 -59 -45 -62 -5 -3
-8 26 -8 68 1 45 -4 84 -12 99 -18 33 -61 51 -102 42 -39 -9 -106 -74 -139
-135 -60 -113 -101 -202 -96 -207 8 -8 6 -12 66 102 29 55 58 109 64 120 38
70 110 98 122 49 9 -36 -3 -161 -21 -211 -62 -177 -198 -362 -277 -377 -19 -3
-47 -2 -61 3 -27 10 -44 0 -33 -18 24 -38 130 -23 182 27 43 41 98 111 129
165 15 26 30 47 35 47 4 0 11 -21 15 -47 9 -62 27 -96 68 -127 74 -57 197 -8
278 110 33 48 119 217 119 234 0 28 -21 2 -56 -67 -80 -160 -153 -246 -219
-259 -66 -12 -105 43 -105 147 1 88 122 320 199 380 23 18 27 19 37 5 16 -22
46 -20 78 5 30 24 35 65 9 85 -24 18 -43 17 -78 -5z"/>
</g>
</svg>
